<svg xmlns="http://www.w3.org/2000/svg" width="198" height="47" viewBox="0 0 198 47">
  <defs>
    <linearGradient id="moneyversity-a" x1="50%" x2="50%" y1="-56.805%" y2="143.062%">
      <stop offset="0%" stop-color="#90D10C"/>
      <stop offset="100%" stop-color="#6EAB24"/>
    </linearGradient>
    <linearGradient id="moneyversity-b" x1="50%" x2="50%" y1="-28.552%" y2="97.241%">
      <stop offset="0%" stop-color="#008466"/>
      <stop offset="100%" stop-color="#005842"/>
    </linearGradient>
    <linearGradient id="moneyversity-c" x1="19.868%" x2="19.868%" y1="0%" y2="253.125%">
      <stop offset="0%" stop-color="#8FD508"/>
      <stop offset="100%" stop-color="#6EAB24"/>
    </linearGradient>
  </defs>
  <g fill="none" fill-rule="evenodd">
    <path fill="url(#moneyversity-a)" d="M113.105501 30.3882134C112.984978 29.3771905 112.595494 28.601003 111.937315 28.0604535 111.278869 27.5196365 110.382329 27.249228 109.246891 27.249228 108.171581 27.249228 107.309936 27.507333 106.661958 28.0227407 106.013712 28.5386834 105.5539 29.3269068 105.282791 30.3882134L113.105501 30.3882134zM116.497051 32.5809028L105.07154 32.5809028C105.07154 33.2343232 105.171931 33.8168649 105.372981 34.3293305 105.574032 34.8417961 105.870641 35.303978 106.262542 35.7158762 106.975747 36.4594328 107.925435 36.8314785 109.111068 36.8314785 110.176179 36.8314785 111.053123 36.6124235 111.741365 36.1745811 112.429607 35.7364712 113.045105 35.0193938 113.587861 34.022814L116.345928 35.558606C115.552195 36.9842018 114.557412 38.0535324 113.361847 38.7657954 112.778828 39.1073499 112.138097 39.3683971 111.439924 39.5489369 110.741482 39.7297442 109.990429 39.8201479 109.186496 39.8201479 106.895488 39.8201479 105.07154 39.1260726 103.715457 37.7379221 102.358568 36.350039 101.680527 34.488473 101.680527 32.1529566 101.680527 29.9180075 102.381385 28.0813159 103.7831 26.6431491 105.184815 25.2049824 106.985947 24.4857653 109.186496 24.4857653 111.487703 24.4857653 113.281051 25.1418603 114.567612 26.453248 115.853637 27.7649031 116.497051 29.6023972 116.497051 31.9651952L116.497051 32.5809028zM121.784756 27.2491477C122.136661 26.3183647 122.598889 25.6250919 123.17144 25.1693291 123.744527 24.7138339 124.462832 24.4856851 125.326892 24.4856851 125.818916 24.4856851 126.27148 24.5410506 126.683513 24.6509793 127.165872 24.7611754 127.6077 24.9213878 128.009801 25.1316164L126.834367 27.895079C126.582853 27.7148067 126.278728 27.5722471 125.922259 27.4668654 125.565522 27.3620185 125.20127 27.3093277 124.829769 27.3093277 123.75419 27.3093277 122.977905 27.7426232 122.500914 28.6084119 122.023386 29.474468 121.784756 30.9289502 121.784756 32.9715909L121.784756 39.2193381 118.513997 39.2193381 118.513997 24.951344 121.784756 24.951344 121.784756 27.2491477zM127.384451 36.640775L130.097423 35.1640931C130.298204 35.8798331 130.675342 36.4243947 131.22776 36.7975103 131.780447 37.1706259 132.473521 37.35705 133.307786 37.35705 134.03146 37.35705 134.60401 37.1920232 135.026243 36.8608998 135.448207 36.5300439 135.659189 36.0686644 135.659189 35.4772962 135.659189 34.7056557 134.915652 34.0442114 133.428577 33.4924282L132.267907 33.0417474C131.494038 32.7207877 130.843644 32.4049099 130.315921 32.0943814 129.788465 31.7835855 129.368917 31.4578115 129.057276 31.1170593 128.454393 30.4655112 128.152952 29.6732758 128.152952 28.7411554 128.152952 27.4880754 128.652759 26.4607371 129.652642 25.6586054 130.652526 24.8567412 131.976129 24.4558091 133.624259 24.4558091 134.729633 24.4558091 135.674221 24.6561414 136.458022 25.0565386 137.241823 25.4572032 137.819474 26.0378727 138.191511 26.7988146L135.870171 28.390507C135.709385 27.9502573 135.412775 27.5947945 134.981147 27.324386 134.548715 27.0539775 134.051592 26.918907 133.488704 26.918907 132.875622 26.918907 132.37823 27.0668159 131.99653 27.3626337 131.614561 27.6581841 131.423979 28.0516271 131.423979 28.5429628 131.423979 29.2747509 132.267907 29.9511733 133.956032 30.5727652 134.508451 30.7632013 134.920752 30.9183318 135.191861 31.0386916 136.498017 31.5500874 137.437773 32.1363737 138.010592 32.7980855 138.583411 33.4597973 138.869552 34.2817215 138.869552 35.2641255 138.869552 36.6776853 138.352029 37.7903455 137.31725 38.602106 136.282204 39.4141339 134.855256 39.8201479 133.036677 39.8201479 131.640061 39.8201479 130.481807 39.5612404 129.562183 39.0442279 128.642827 38.5272154 127.916738 37.7258861 127.384451 36.640775M140.663571 39.2190974L143.93433 39.2190974 143.93433 24.981327 140.663571 24.981327 140.663571 39.2190974zM140.226307 18.823716C140.226307 18.282899 140.432189 17.8100184 140.844489 17.4042719 141.256253 16.9990604 141.738613 16.7960534 142.291569 16.7960534 142.863851 16.7960534 143.346211 16.9891641 143.73838 17.3743157 144.130012 17.7597347 144.32623 18.2430465 144.32623 18.823716 144.32623 19.384593 144.130012 19.8673698 143.73838 20.2731163 143.346211 20.6783279 142.863851 20.8810674 142.291569 20.8810674 141.728413 20.8810674 141.243906 20.6761882 140.836705 20.2656273 140.429773 19.8550664 140.226307 19.3744293 140.226307 18.823716L140.226307 18.823716z"/>
    <polygon fill="url(#moneyversity-a)" points="148.255 39.219 148.255 27.835 145.753 27.835 145.753 24.982 148.255 24.982 148.255 19.59 151.526 19.59 151.526 24.982 154.028 24.982 155.653 27.835 151.526 27.835 151.526 39.219"/>
    <path fill="url(#moneyversity-a)" d="M157.914925 45.9179801L154.569813 45.9257367 158.475128 37.995091 153.226614 24.9815142 156.848741 24.9799094 159.465885 32.3558298C159.546413 32.5960146 159.617008 32.8214888 159.677136 33.0317174 159.697536 33.102061 159.760347 33.3398386 159.866107 33.7450502 159.971598 34.1507967 160.064741 34.6185954 160.145537 35.1492487 160.205664 34.8991676 160.311692 34.5763357 160.462279 34.1810204 160.613402 33.7857051 160.819552 33.3125571 161.081535 32.7621113L161.157231 32.5821064 164.681383 24.9812468 168.224057 24.9815142 157.914925 45.9179801zM94.9925831 39.2193114L102.074709 24.981541 98.5234458 24.9844831 95.4153525 32.1469653C95.2019546 32.6265326 95.0344574 33.0560836 94.9128608 33.4358858 94.8417282 33.6455795 94.7781115 33.8579478 94.7225475 34.0729907 94.6664467 34.2880337 94.6135669 34.4998671 94.5625662 34.7100957L94.1212754 33.1414053 93.7768861 32.1418835 90.6438292 24.9842157 87.0713606 24.981541 94.1287913 39.2193114 94.9925831 39.2193114z"/>
    <path fill="url(#moneyversity-b)" d="M38.3268524 32.1528763C38.3268524 30.8294527 37.902204 29.7085011 37.0531757 28.7910914 36.2038789 27.8734142 35.156216 27.4144419 33.9107239 27.4144419 32.68429 27.4144419 31.642264 27.8734142 30.7830355 28.7910914 29.9235386 29.7085011 29.494327 30.8294527 29.494327 32.1528763 29.494327 33.4765675 29.9235386 34.5975191 30.7830355 35.5149287 31.642264 36.4326059 32.68429 36.8915782 33.9107239 36.8915782 35.1363526 36.8915782 36.1791838 36.4326059 37.0378755 35.5149287 37.897104 34.5975191 38.3268524 33.4765675 38.3268524 32.1528763M26.0423812 32.1229201C26.0423812 31.0904999 26.2385999 30.1083633 26.6305004 29.176243 27.0224009 28.2443901 27.5847514 27.4224659 28.3186254 26.7107379 29.0516941 25.9992773 29.9036751 25.4504363 30.8734948 25.0647498 31.843046 24.6790633 32.845345 24.4856851 33.8803919 24.4856851 34.975566 24.4856851 35.990481 24.6737139 36.9251369 25.0495042 37.8595245 25.4258294 38.706137 25.981892 39.4647061 26.7184944 40.2232752 27.4550968 40.7987785 28.2869173 41.190679 29.2139557 41.5825795 30.1412617 41.7782614 31.1108273 41.7782614 32.1229201 41.7782614 33.1652366 41.5874112 34.1473731 41.2059792 35.0693298 40.823742 35.9918213 40.250923 36.8182924 39.4872538 37.5500804 38.723853 38.2818685 37.8622087 38.8430129 36.9025892 39.2340488 35.9427014 39.6248172 34.9355707 39.8200676 33.8803919 39.8200676 32.8552767 39.8200676 31.8655937 39.6293641 30.9110743 39.2487594 29.956018 38.8678873 29.1024264 38.3067428 28.348689 37.5650586 27.5952199 36.8236417 27.0224009 35.9918213 26.6305004 35.0693298 26.2385999 34.1473731 26.0423812 33.1652366 26.0423812 32.1229201M43.8560321 39.2193114L43.8560321 24.981541 46.9308408 24.981541 46.9308408 27.3093009C47.563787 26.3480267 48.3250404 25.6373686 49.2143325 25.1767915 50.1036246 24.7162143 51.1864511 24.4856583 52.4625437 24.4856583 53.5273858 24.4856583 54.4343939 24.6536272 55.1830313 24.9890301 55.9314003 25.3247004 56.5171037 25.8224553 56.9390678 26.4833647 57.1803819 26.8738656 57.3613004 27.3296284 57.4818232 27.8498505 57.5320187 28.0903027 57.5722825 28.4382765 57.6023461 28.8940392 57.6324097 29.3498019 57.6474415 29.9128187 57.6474415 30.5836243L57.6474415 39.2193114 54.346619 39.2193114 54.346619 31.9051757C54.346619 30.0428073 54.1179208 28.8014958 53.660793 28.1807064 53.2033968 27.5596494 52.3922164 27.249121 51.2267149 27.249121 50.4627773 27.249121 49.781783 27.3871336 49.1842689 27.6623565 48.5862179 27.9378469 48.1162057 28.3358369 47.7750375 28.8563265 47.5436551 29.1767512 47.3777685 29.6097792 47.2773775 30.1554107 47.1769865 30.7013095 47.1270595 31.5596092 47.1270595 32.7311119L47.1270595 39.2193114 43.8560321 39.2193114zM70.9845146 30.3882134C70.8639918 29.3771905 70.4745071 28.601003 69.8163289 28.0604535 69.1581508 27.5196365 68.2610743 27.249228 67.1259049 27.249228 66.0503258 27.249228 65.1889499 27.507333 64.5409719 28.0227407 63.8927255 28.5386834 63.4331818 29.3269068 63.1615357 30.3882134L70.9845146 30.3882134zM74.3757964 32.5809028L62.9508221 32.5809028C62.9508221 33.2343232 63.0509446 33.8168649 63.2522634 34.3293305 63.4530453 34.8417961 63.7496549 35.303978 64.1415555 35.7158762 64.8550292 36.4594328 65.8044485 36.8314785 66.9903503 36.8314785 68.0551923 36.8314785 68.9321369 36.6124235 69.6203787 36.1745811 70.308352 35.7364712 70.924119 35.0193938 71.4668744 34.022814L74.22521 35.558606C73.4312087 36.9842018 72.4364256 38.0535324 71.2405921 38.7657954 70.6578414 39.1073499 70.0171109 39.3683971 69.3189374 39.5489369 68.620227 39.7297442 67.8697107 39.8201479 67.0655093 39.8201479 64.7745017 39.8201479 62.9508221 39.1260726 61.594202 37.7379221 60.2378503 36.350039 59.5595403 34.488473 59.5595403 32.1529566 59.5595403 29.9180075 60.260398 28.0813159 61.6621135 26.6431491 63.063829 25.2049824 64.8649609 24.4857653 67.0655093 24.4857653 69.3664486 24.4857653 71.1600646 25.1418603 72.4463573 26.453248 73.73265 27.7649031 74.3757964 29.6023972 74.3757964 31.9651952L74.3757964 32.5809028zM14.1976975 30.1630602L13.9265882 30.7637897C13.4640919 31.7550201 13.1320501 32.5563494 12.9309998 33.1667077L12.167599 31.2791974 11.7292609 30.176701 6.68152835 19.4226802 4.5035277 19.4226802-.00010737001 39.2194719 3.29185713 39.2175996 5.66258695 28.3897581C5.79411521 27.8794322 5.89101665 27.3538608 5.95194913 26.8133112 6.00241303 26.513214 6.03542931 26.2856001 6.05072954 26.1302021 6.06576134 25.9750716 6.07354567 25.7175015 6.07354567 25.3569568L6.52557341 26.72371C6.6960233 27.1642271 6.90727379 27.6397824 7.15825119 28.1506432L12.4974934 39.2192044 13.3717537 39.2192044 18.7058958 28.3913629C18.9560679 27.9107258 19.161413 27.4201925 19.3216628 26.9192279 19.4819125 26.4185309 19.6118302 25.8977738 19.7119528 25.3569568L19.922398 26.9491842 20.1178114 28.3616741 22.5677266 39.2181345 25.8945863 39.2192044 21.2859971 19.4226802 19.1246388 19.4226802 14.1976975 30.1630602zM78.8503879 45.9179801L75.5055436 45.9257367 79.4108593 37.995091 74.1623448 24.9815142 77.7842037 24.9799094 80.4016161 32.3558298C80.4818752 32.5960146 80.5527394 32.8214888 80.6128666 33.0317174 80.6329985 33.102061 80.6958099 33.3398386 80.8018378 33.7450502 80.9070604 34.1507967 81.0004723 34.6185954 81.0812683 35.1492487 81.1413955 34.8991676 81.2471549 34.5763357 81.3977414 34.1810204 81.5488647 33.7857051 81.7552835 33.3125571 82.0169979 32.7621113L82.0926938 32.5821064 85.6171143 24.9812468 89.1595194 24.9815142 78.8503879 45.9179801z"/>
    <path fill="#00775C" d="M187.762552,15.4366894 L187.972372,15.0323126 L168.321148,7.29211663 L168.214901,7.73700974 L166.509588,14.8926689 C166.475191,15.0378197 166.520671,15.1908377 166.629212,15.2903585 L173.949597,22.0471479 C174.02183,22.1140196 174.115083,22.1506023 174.212158,22.1506023 L184.04465,22.1506023 C184.189116,22.1506023 184.322881,22.0683895 184.390528,21.9362197 L184.724176,21.2934652 L187.743443,15.4744522 L187.762552,15.4366894 Z"/>
    <path fill="#005842" d="M184.390451,21.936377 L184.724099,21.2932292 L187.743366,15.4746095 L187.762475,15.4368467 L187.972295,15.0320766 L178.465809,11.287658 L174.212082,22.1507596 L184.044955,22.1507596 C184.189421,22.1507596 184.322804,22.0685469 184.390451,21.936377"/>
    <path fill="url(#moneyversity-c)" d="M196.701378,14.3268954 L187.293878,5.64616948 L187.293878,5.64577612 L182.234121,0.976562003 C182.090037,0.843605442 181.903148,0.770046635 181.710145,0.770046635 L179.582517,0.770046635 L168.825519,0.770046635 L162.280207,0.770046635 C162.117013,0.770046635 161.971783,0.873501 161.913691,1.02966595 C161.854452,1.18622427 161.896874,1.36363081 162.017645,1.47573915 L168.825519,7.75813331 L176.483755,14.8256792 C176.628604,14.9582424 176.81511,15.0321946 177.008879,15.0321946 L177.715922,15.0321946 L187.293878,15.0321946 L196.438817,15.0321946 C196.601628,15.0321946 196.747623,14.9287402 196.806097,14.7721819 C196.864189,14.6156236 196.822531,14.4386104 196.701378,14.3268954"/>
    <path fill="#64A30B" d="M179.051508,7.6693907 C178.921183,7.84837069 178.957873,8.10208957 179.131767,8.23543949 L179.131767,8.23543949 L187.98013,15.0323519 L189.297142,15.0323519 L179.600709,7.58599783 C179.530387,7.53210716 179.448217,7.50614522 179.366811,7.50614522 L179.366811,7.50614522 C179.247187,7.50614522 179.12871,7.56239608 179.051508,7.6693907"/>
    <path fill="#00775C" d="M195.410011,3.92756826 C195.202484,3.86581033 194.98311,3.98460584 194.920431,4.19820174 C194.294029,6.33888103 192.998037,7.80573018 191.057298,8.59284876 C191.400883,8.29428654 191.724212,7.95638806 192.021171,7.57167943 C193.011032,6.29285761 193.716164,4.54554092 193.959616,2.77776937 C193.989427,2.55630622 193.83961,2.35175767 193.62444,2.32107539 C193.411562,2.29117983 193.211297,2.44419788 193.181104,2.6648743 C192.959436,4.28041452 192.163726,6.63193617 190.47714,8.05158181 C191.740264,5.95181223 191.906133,2.70145702 191.878233,0.791681578 C191.874793,0.568251619 191.698606,0.392418535 191.479231,0.39320526 C191.262532,0.396745523 191.088638,0.58044586 191.091695,0.804269182 C191.123034,2.8784702 190.926209,6.61816848 189.262936,8.35643783 C188.679339,8.96654323 187.976882,9.26471208 187.118875,9.27257934 C187.107791,9.27257934 187.097472,9.27336606 187.086389,9.27336606 C181.993383,9.27336606 179.60969,7.58820066 179.587524,7.5720728 C179.411718,7.44186977 179.165591,7.48435294 179.039469,7.66608646 C178.913348,7.84781998 178.955006,8.10035877 179.130812,8.23016843 C179.234384,8.30569405 181.714769,10.0821196 187.086389,10.0829063 C192.816117,10.0829063 194.917374,7.00956427 195.67219,4.43146576 C195.735633,4.21786987 195.617538,3.99207973 195.410011,3.92756826"/>
  </g>
</svg>
