<svg xmlns="http://www.w3.org/2000/svg" width="120" height="27" viewBox="0 0 120 27">
  <defs>
    <linearGradient id="old-mutual-a" x1="0%" x2="99.235%" y1="50%" y2="50%">
      <stop offset="0%" stop-color="#8FD30A"/>
      <stop offset="100%" stop-color="#005842"/>
    </linearGradient>
  </defs>
  <g fill="none" fill-rule="evenodd">
    <path fill="#005842" d="M112.626886,17.8336819 L120,17.8336819 L120,15.9016034 L114.883174,15.9016034 L114.883174,8.16532218 L112.626886,8.16532218 L112.626886,17.8336819 Z M107.49858,13.7872722 L106.136667,10.6521263 L104.772667,13.7872722 L107.49858,13.7872722 Z M105.124364,8.09660392 L107.206368,8.09660392 L111.60519,17.8346778 L109.243498,17.8346778 L108.305291,15.6645752 L103.965955,15.6645752 L103.029836,17.8346778 L100.726585,17.8346778 L105.124364,8.09660392 Z M91.8725866,13.6906683 C91.8725866,16.5369983 93.5611498,17.9860572 96.3162838,17.9860572 C99.073505,17.9860572 100.81738,16.5489493 100.81738,13.62195 L100.81738,8.16532218 L98.5600482,8.16532218 L98.5600482,13.7046111 C98.5600482,15.237327 97.7241155,16.026093 96.3465485,16.026093 C94.9679379,16.026093 94.1320052,15.2094413 94.1320052,13.6348969 L94.1320052,8.16532218 L91.8725866,8.16532218 L91.8725866,13.6906683 L91.8725866,13.6906683 Z M85.3395795,17.8336819 L87.5958673,17.8336819 L87.5958673,10.1262822 L90.7204397,10.1262822 L90.7204397,8.16532218 L82.2170944,8.16532218 L82.2170944,10.1262822 L85.3395795,10.1262822 L85.3395795,17.8336819 Z M72.1191108,13.6906683 C72.1191108,16.5369983 73.8055868,17.9860572 76.562808,17.9860572 C79.317942,17.9860572 81.0628602,16.5489493 81.0628602,13.62195 L81.0628602,8.16532218 L78.8034416,8.16532218 L78.8034416,13.7046111 C78.8034416,15.237327 77.9685525,16.026093 76.5909855,16.026093 C75.2123749,16.026093 74.3774858,15.2094413 74.3774858,13.6348969 L74.3774858,8.16532218 L72.1191108,8.16532218 L72.1191108,13.6906683 L72.1191108,13.6906683 Z M60.4818006,17.9701225 L62.6963439,17.9701225 L62.6963439,11.6998307 L65.555839,15.7860771 L65.6132376,15.7860771 L68.5029975,11.6580022 L68.5029975,17.9701225 L70.7436311,17.9701225 L70.7436311,8.30176277 L68.310973,8.30176277 L65.6132376,12.390001 L62.9155023,8.30176277 L60.4818006,8.30176277 L60.4818006,17.9701225 Z M53.6398845,16.8258142 C56.2363896,16.8258142 57.8915572,15.1686087 57.8915572,13.0273877 L57.8915572,12.999502 C57.8915572,10.859277 56.2363896,9.17418584 53.6398845,9.17418584 L51.2364475,9.17418584 L51.2364475,16.8258142 L53.6398845,16.8258142 Z M50.0769953,8.16532218 L53.6398845,8.16532218 C56.8646436,8.16532218 59.0927539,10.2517678 59.0927539,12.9716164 L59.0927539,12.999502 C59.0927539,15.7203466 56.8646436,17.8336819 53.6398845,17.8336819 L50.0769953,17.8336819 L50.0769953,8.16532218 Z M41.775067,17.8336819 L48.7098644,17.8336819 L48.7098644,16.8258142 L42.9355628,16.8258142 L42.9355628,8.16532218 L41.775067,8.16532218 L41.775067,17.8336819 Z M39.2651816,13.0273877 L39.2651816,12.999502 C39.2651816,10.8035056 37.5651387,9.00786774 35.2180568,9.00786774 C32.8730621,9.00786774 31.2022403,10.77562 31.2022403,12.9716164 L31.2022403,12.999502 C31.2022403,15.1964944 32.9022832,16.9901404 35.2493651,16.9901404 C37.5943599,16.9901404 39.2651816,15.2233841 39.2651816,13.0273877 L39.2651816,13.0273877 Z M30,13.0273877 L30,12.999502 C30,10.3344288 32.1258363,8 35.2493651,8 C38.3708067,8 40.4674219,10.3055473 40.4674219,12.9716164 C40.4830761,12.9855592 40.4830761,12.9855592 40.4674219,12.999502 C40.4674219,15.6645752 38.3415856,18 35.2180568,18 C32.0966152,18 30,15.6944527 30,13.0273877 L30,13.0273877 Z"/>
    <path fill="url(#old-mutual-a)" d="M4.96250197,17.7608652 C4.68560584,17.2854639 4.85001292,16.6885233 5.32484651,16.4164044 C5.79643522,16.1442855 6.40322712,16.3045453 6.67687837,16.7756443 C6.95052962,17.2456678 6.78720417,17.8479863 6.31453383,18.1211807 C6.15661651,18.2104529 5.98571968,18.2524001 5.81806773,18.2524001 C5.4773557,18.2524001 5.1463783,18.078158 4.96250197,17.7608652 M8.38043852,14.8331674 C7.95968621,14.0770426 6.34481935,14.3265745 6.86832609,15.4085966 C6.23016704,15.0525834 5.4265193,15.0321476 4.74725849,15.4215034 C3.72295915,16.0098395 3.37143087,17.3145042 3.96308001,18.3341433 C4.55472916,19.3516313 5.86674088,19.7011911 6.89104022,19.1139306 C7.56921941,18.7245748 7.95319646,18.0222284 7.96184946,17.2940684 C8.64327352,18.2846672 9.66973611,17.0197984 9.22086153,16.2808828 C9.64161385,15.9678923 10.4549962,15.4537705 11.2110524,14.9955782 C11.2467461,14.4448871 11.2705418,13.9092539 11.2824397,13.3488826 C10.3782008,13.8587021 9.03590357,14.5513684 8.38043852,14.8331674 M19.0809595,18.1211807 C18.6061259,17.8479863 18.4449637,17.2456678 18.718615,16.7756443 C18.9911846,16.3045453 19.5958133,16.1442855 20.0706469,16.4164044 C20.5443988,16.6885233 20.7088059,17.2854639 20.4329914,17.7608652 C20.2491151,18.078158 19.917056,18.2524001 19.5774256,18.2524001 C19.4076104,18.2524001 19.2367136,18.2104529 19.0809595,18.1211807 M14.1833593,14.9955782 C14.9404971,15.4537705 15.7527979,15.9678923 16.1735502,16.2808828 C15.7257572,17.0197984 16.7500566,18.2846672 17.4314807,17.2940684 C17.4422969,18.0222284 17.8251923,18.7245748 18.5044531,19.1139306 C19.5287525,19.7011911 20.8396826,19.3516313 21.4324134,18.3341433 C22.0218992,17.3145042 21.6714526,16.0098395 20.6471532,15.4215034 C19.9689741,15.0321476 19.1664079,15.0525834 18.5271673,15.4085966 C19.0485108,14.3265745 17.4336439,14.0770426 17.0150548,14.8331674 C16.3595898,14.5513684 15.0172926,13.8587021 14.1141353,13.3488826 C14.1260331,13.9092539 14.1476657,14.4448871 14.1833593,14.9955782 M11.7064369,5.40795921 C11.7064369,4.86479704 12.1466585,4.42381389 12.6961242,4.42381389 C13.2488349,4.42381389 13.6868932,4.86479704 13.6868932,5.40795921 C13.6868932,5.95112138 13.2434267,6.3931801 12.6961242,6.3931801 C12.1499034,6.3931801 11.7064369,5.95112138 11.7064369,5.40795921 M10.5545058,5.40795921 C10.5545058,6.18667092 10.9741765,6.86858144 11.6026009,7.2407282 C10.3976701,7.33215154 10.9882376,8.84762777 11.8578645,8.83149424 C11.9498027,9.62633948 11.9973942,11.4483528 11.9973942,12.4507828 C11.9973942,16.1711748 11.4792956,20.7229813 10.1954061,21.9534319 C9.27494281,22.025495 8.18141943,21.8985779 7.04354942,21.5941919 C5.81590448,21.2682946 4.78295213,20.7789109 4.00201853,20.2110106 C3.07290223,20.3357766 2.26384636,20.5788551 1.64731983,20.905828 C3.04802484,22.1115405 4.61962669,23.2505677 6.35022747,24.2433175 C8.38692828,25.4135362 10.6291379,26.3707923 12.6961242,27 C14.7425597,26.3707923 17.0085651,25.4135362 19.0452659,24.2433175 C20.7758667,23.2505677 22.3453053,22.1115405 23.7470919,20.905828 C23.131647,20.5788551 22.3225911,20.3357766 21.3913116,20.2110106 C20.6114596,20.7799865 19.5785073,21.2704458 18.3508623,21.5952675 C17.2129923,21.8985779 16.1183873,22.025495 15.2000873,21.9545074 C13.9129529,20.7229813 13.3980992,16.1711748 13.3980992,12.4507828 C13.3980992,11.4494284 13.4456907,9.62741505 13.5376289,8.83149424 C14.4050925,8.84762777 14.99566,7.33215154 13.7928925,7.2407282 C14.4202353,6.86858144 14.8409876,6.18667092 14.8409876,5.40795921 C14.8409876,4.2312871 13.8805042,3.2772577 12.6961242,3.27618213 C11.5149892,3.2772577 10.5545058,4.2312871 10.5545058,5.40795921 M6.34481935,2.38130901 C4.25079239,3.58379477 2.38174354,4.96805163 0.774448057,6.47169661 C0.270410578,8.6099271 0.0021674554,10.9051906 4.20441229e-06,13.3112377 C-0.00107742108,15.2988886 0.206594674,17.2230809 0.553796457,19.033263 C1.14760885,18.6654185 1.76413538,18.0889137 2.33739689,17.3521491 C2.23356085,16.3938175 2.32333576,15.2612437 2.65106829,14.0404733 C2.9571683,12.9100506 3.394145,11.9043939 3.91332524,11.146118 C5.32376488,10.7438553 8.42478517,11.8893359 11.2813581,13.3467315 C11.2889295,13.04127 11.2921744,12.7530176 11.2921744,12.4486316 C11.2921744,12.2012508 11.2889295,11.9011672 11.2824397,11.5795722 C8.87474138,9.95653906 6.73636778,8.12054336 6.41620663,6.83738995 C6.81640806,6.00920209 7.47187311,5.12938693 8.30472474,4.30227463 C9.20463715,3.40955264 10.146733,2.76421145 11.0315026,2.37593116 C11.3873574,1.5133251 11.5809684,0.694817353 11.6047641,0 C9.85361245,0.605545154 8.07650176,1.38748357 6.34481935,2.38130901 M14.3618275,2.37593116 C15.2487604,2.76421145 16.1908562,3.40955264 17.0907686,4.30227463 C17.921457,5.12938693 18.5790853,6.00920209 18.9792867,6.83738995 C18.658044,8.12054336 16.520752,9.95653906 14.111972,11.5795722 C14.1065639,11.9011672 14.103319,12.2012508 14.103319,12.4486316 C14.103319,12.7530176 14.1065639,13.04127 14.1141353,13.3467315 C16.9707082,11.8893359 20.0717285,10.7438553 21.4800049,11.146118 C22.0013484,11.9043939 22.4394067,12.9100506 22.7422618,14.0404733 C23.071076,15.2612437 23.1619325,16.3938175 23.0570148,17.3521491 C23.6302764,18.0889137 24.2478845,18.6654185 24.8406153,19.033263 C25.1878171,17.2230809 25.3965708,15.2988886 25.3954892,13.3112377 C25.3933259,10.9051906 25.1250828,8.6099271 24.6199637,6.47169661 C23.0115866,4.96805163 21.1436193,3.58379477 19.0485108,2.38130901 C17.31791,1.38748357 15.5397177,0.605545154 13.7907292,0 C13.814525,0.694817353 14.0059727,1.5133251 14.3618275,2.37593116"/>
  </g>
</svg>
