<svg xmlns="http://www.w3.org/2000/svg" width="20" height="20" viewBox="0 0 20 20">
  <path fill="#005842" d="M14.5774619,13.1632116 L18.9575307,17.5277331 L18.9587061,17.5289062 C19.3486259,17.9187368 19.3486983,18.5508494 18.9588677,18.9407693 C18.5681981,19.3315284 17.9348875,19.3321277 17.5434791,18.9421086 L13.1632395,14.5774169 C11.9014571,15.5414038 10.3246755,16.114 8.6141,16.114 C4.47181525,16.114 1.1141,12.7562847 1.1141,8.614 C1.1141,4.47171525 4.47181525,1.114 8.6141,1.114 C12.7563847,1.114 16.1141,4.47171525 16.1141,8.614 C16.1141,10.324608 15.541482,11.9014172 14.5774619,13.1632116 Z M14.1141,8.614 C14.1141,5.57628475 11.6518153,3.114 8.6141,3.114 C5.57638475,3.114 3.1141,5.57628475 3.1141,8.614 C3.1141,11.6517153 5.57638475,14.114 8.6141,14.114 C11.6518153,14.114 14.1141,11.6517153 14.1141,8.614 Z"/>
</svg>
